<?xml version="1.0" encoding="iso-8859-1"?>
<!-- Generator: Adobe Illustrator 19.0.0, SVG Export Plug-In . SVG Version: 6.00 Build 0)  -->
<svg xmlns="http://www.w3.org/2000/svg" xmlns:xlink="http://www.w3.org/1999/xlink" version="1.1" id="Capa_1" x="0px" y="0px" viewBox="0 0 512 512" style="enable-background:new 0 0 512 512;" xml:space="preserve" width="512px" height="512px">
<g>
	<g>
		<path d="M256,0C114.615,0,0,114.615,0,256s114.615,256,256,256s256-114.615,256-256C511.835,114.683,397.317,0.165,256,0z     M256,490.667C126.397,490.667,21.333,385.603,21.333,256S126.397,21.333,256,21.333S490.667,126.397,490.667,256    C490.52,385.542,385.542,490.52,256,490.667z" fill="#333333"/>
	</g>
</g>
<g>
	<g>
		<path d="M362.667,149.333H149.333c-5.891,0-10.667,4.776-10.667,10.667v234.667c0,17.673,14.327,32,32,32h170.667    c17.673,0,32-14.327,32-32V160C373.333,154.109,368.558,149.333,362.667,149.333z M352,394.667    c0,5.891-4.776,10.667-10.667,10.667H170.667c-5.891,0-10.667-4.776-10.667-10.667v-224h192V394.667z" fill="#333333"/>
	</g>
</g>
<g>
	<g>
		<path d="M288,117.333v-32c0-5.891-4.776-10.667-10.667-10.667h-42.667c-5.891,0-10.667,4.776-10.667,10.667v32H117.333v21.333    h277.333v-21.333H288z M266.667,117.333h-21.333V96h21.333V117.333z" fill="#333333"/>
	</g>
</g>
<g>
	<g>
		<rect x="192" y="192" width="21.333" height="192" fill="#333333"/>
	</g>
</g>
<g>
	<g>
		<rect x="245.333" y="192" width="21.333" height="192" fill="#333333"/>
	</g>
</g>
<g>
	<g>
		<rect x="298.667" y="192" width="21.333" height="192" fill="#333333"/>
	</g>
</g>
<g>
</g>
<g>
</g>
<g>
</g>
<g>
</g>
<g>
</g>
<g>
</g>
<g>
</g>
<g>
</g>
<g>
</g>
<g>
</g>
<g>
</g>
<g>
</g>
<g>
</g>
<g>
</g>
<g>
</g>
</svg>
